<svg version="1.1" xmlns="http://www.w3.org/2000/svg" xmlns:xlink="http://www.w3.org/1999/xlink" xmlns:a="http://ns.adobe.com/AdobeSVGViewerExtensions/3.0/" x="0px" y="0px" width="26.9px" height="28.3px" viewBox="0 0 26.9 28.3" style="enable-background:new 0 0 26.9 28.3;" xml:space="preserve"> <defs> </defs> <path d="M13.5,7.8c1.9,0,3.4,1.5,3.4,3.4c0,1.9-1.5,3.4-3.4,3.4c-1.9,0-3.4-1.5-3.4-3.4C10.1,9.3,11.6,7.8,13.5,7.8z M13.5,7.2c-2.2,0-4,1.8-4,4c0,2.2,1.8,4,4,4c2.2,0,4-1.8,4-4C17.4,8.9,15.6,7.2,13.5,7.2z M13.5,3.2c4.4,0,7.9,3.5,7.9,7.9 c0,1.6-0.3,2.6-1.2,3.8l-6.8,10l-6.8-10c-0.8-1.2-1.2-2.2-1.2-3.8C5.5,6.7,9.1,3.2,13.5,3.2z M13.5,2.6c-4.7,0-8.5,3.8-8.5,8.5 c0,1.7,0.4,2.8,1.3,4.1l7,10.4c0.1,0.1,0.3,0.2,0.4,0.1c0,0,0.1-0.1,0.1-0.1l7-10.4c0.9-1.3,1.3-2.4,1.3-4.1 C22,6.4,18.2,2.6,13.5,2.6z"/> </svg> 