<svg version="1.1" xmlns="http://www.w3.org/2000/svg" xmlns:xlink="http://www.w3.org/1999/xlink" xmlns:a="http://ns.adobe.com/AdobeSVGViewerExtensions/3.0/" x="0px" y="0px" width="26.9px" height="28.3px" viewBox="0 0 26.9 28.3" style="enable-background:new 0 0 26.9 28.3;" xml:space="preserve"> <defs> </defs> <path d="M13.5,7.7c-0.4,0-0.7,0.3-0.7,0.7v5.8c0,0.4,0.3,0.7,0.7,0.7h5.1c0.4,0,0.7-0.3,0.7-0.7c0-0.4-0.3-0.7-0.7-0.7 h-4.3V8.4C14.2,8,13.9,7.7,13.5,7.7 M13.5,5.1c5,0,9,4,9,9c0,5-4,9-9,9s-9-4-9-9C4.4,9.2,8.5,5.1,13.5,5.1 M13.5,3.7 C7.7,3.7,3,8.4,3,14.2c0,5.8,4.7,10.5,10.5,10.5s10.5-4.7,10.5-10.5C23.9,8.4,19.2,3.7,13.5,3.7"/> </svg> 