<svg version="1.1" xmlns="http://www.w3.org/2000/svg" xmlns:xlink="http://www.w3.org/1999/xlink" xmlns:a="http://ns.adobe.com/AdobeSVGViewerExtensions/3.0/" x="0px" y="0px" width="26.9px" height="28.3px" viewBox="0 0 26.9 28.3" style="enable-background:new 0 0 26.9 28.3;" xml:space="preserve"> <defs> </defs> <path d="M8.3,13.5l1.3-0.6l0.6,1.3h0.6l2.6,0.6l0.6,0.6l1.3,1.3l-1.9,1.3l-0.6,0.6v1.4l-1.3,1.2l0-1.6l-0.1-0.3 l-0.2-0.2l-1.8-2.4l-0.5-2L8.3,13.5z M13.5,23.9c-5.4,0-9.7-4.4-9.7-9.7c0-1.4,0.3-2.7,0.8-3.9L5,11.6l1.3,0.6L7,12.9l0.6,1.9 l0.6,2.6l1.9,2.6l0.6,2.6l1.9-0.6l1.3-1.3v-1.3l2.6-1.9v-1.3l-2.6-2.6l-3.2-0.6l-1.3-1.3l-1.9,0.6L7,10.9l1.3-1.3L10.9,9l1.3-1.9 l1.9-1.3l-1.3-1.3h0.6c2.2,0,4.4,0.8,6.1,2.1l-0.9,0.4l-1.3,1.3l2.6,1.9l-1.3,5.2l1.2,0.6l3.2-1.6C22.9,19.7,18.7,23.9,13.5,23.9 M11.6,4.6l0.6,1.1h-1.3l-0.6,1.9L7.6,8.3L6.3,9.6l-0.6,0.6L5.3,9C6.7,6.7,9,5.2,11.6,4.6 M23.1,13.2l-0.6,0.3l-2.6,1.3l1.3-4.5 L20.6,9l-1.3-0.6l1-1C21.9,8.9,22.9,11,23.1,13.2 M13.5,3.2c-6.1,0-11,4.9-11,11c0,6.1,4.9,11,11,11s11-4.9,11-11 C24.5,8.1,19.5,3.2,13.5,3.2"/> </svg> 